<svg width="70" height="70" viewBox="0 0 70 70" fill="none" xmlns="http://www.w3.org/2000/svg">
<g clip-path="url(#clip0_154_147)">
<path d="M0 33.6C0 17.7605 -4.65748e-06 9.83256 4.91953 4.91953C9.83906 0.00651147 17.7605 0 33.6 0H36.4C52.2395 0 60.1674 0 65.0805 4.91953C69.9935 9.83907 70 17.7605 70 33.6V36.4C70 52.2395 70 60.1674 65.0805 65.0805C60.1609 69.9935 52.2395 70 36.4 70H33.6C17.7605 70 9.83255 70 4.91953 65.0805C0.00650681 60.1609 0 52.2395 0 36.4V33.6Z" fill="#0DBC4E"/>
<path d="M16.9306 46.136C21.0106 46.136 23.4346 43.664 23.4346 40.76C23.4346 38.216 22.0186 36.824 19.8826 35.936L17.5546 34.976C16.0426 34.376 14.7706 33.896 14.7706 32.624C14.7706 31.472 15.7546 30.776 17.3146 30.776C18.7786 30.776 19.9546 31.304 21.1066 32.24L22.8826 30.008C21.4426 28.544 19.3786 27.728 17.3146 27.728C13.7386 27.728 11.1706 29.96 11.1706 32.864C11.1706 35.432 12.9946 36.896 14.7706 37.616L17.1466 38.624C18.7306 39.296 19.8106 39.728 19.8106 41.048C19.8106 42.272 18.8506 43.064 17.0026 43.064C15.4426 43.064 13.7386 42.296 12.4906 41.12L10.4506 43.568C12.1786 45.224 14.5306 46.136 16.9306 46.136ZM26.6031 45.8H29.7711V38.384C29.7711 36.704 29.5071 34.232 29.3151 32.552H29.4111L30.8511 36.728L33.5871 44.216H35.6271L38.3631 36.728L39.8271 32.552H39.9471C39.7551 34.232 39.4671 36.704 39.4671 38.384V45.8H42.7071V28.04H38.7711L35.8191 36.368C35.4591 37.472 35.1471 38.624 34.7391 39.776H34.6431C34.2591 38.624 33.9471 37.472 33.5391 36.368L30.5151 28.04H26.6031V45.8ZM52.3681 46.136C56.4481 46.136 58.8721 43.664 58.8721 40.76C58.8721 38.216 57.4561 36.824 55.3201 35.936L52.9921 34.976C51.4801 34.376 50.2081 33.896 50.2081 32.624C50.2081 31.472 51.1921 30.776 52.7521 30.776C54.2161 30.776 55.3921 31.304 56.5441 32.24L58.3201 30.008C56.8801 28.544 54.8161 27.728 52.7521 27.728C49.1761 27.728 46.6081 29.96 46.6081 32.864C46.6081 35.432 48.4321 36.896 50.2081 37.616L52.5841 38.624C54.1681 39.296 55.2481 39.728 55.2481 41.048C55.2481 42.272 54.2881 43.064 52.4401 43.064C50.8801 43.064 49.1761 42.296 47.9281 41.12L45.8881 43.568C47.6161 45.224 49.9681 46.136 52.3681 46.136Z" fill="white"/>
</g>
<defs>
<clipPath id="clip0_154_147">
<rect width="70" height="70" fill="white"/>
</clipPath>
</defs>
</svg>
