<svg width="70" height="70" viewBox="0 0 70 70" fill="none" xmlns="http://www.w3.org/2000/svg">
<g clip-path="url(#clip0_154_151)">
<path d="M0 33.6C0 17.7605 -4.65748e-06 9.83256 4.91953 4.91953C9.83907 0.00651147 17.7605 0 33.6 0H36.4C52.2395 0 60.1674 0 65.0805 4.91953C69.9935 9.83907 70 17.7605 70 33.6V36.4C70 52.2395 70 60.1674 65.0805 65.0805C60.1609 69.9935 52.2395 70 36.4 70H33.6C17.7605 70 9.83255 70 4.91953 65.0805C0.00650681 60.1609 0 52.2395 0 36.4V33.6Z" fill="url(#paint0_linear_154_151)"/>
<path fill-rule="evenodd" clip-rule="evenodd" d="M14.4201 34.1861C25.6136 29.3088 33.0781 26.0932 36.8136 24.5391C47.4796 20.1014 49.6936 19.3298 51.1392 19.307C51.6698 19.2944 52.1908 19.4506 52.6271 19.753C52.9322 20.0192 53.1272 20.3895 53.174 20.7916C53.2518 21.2923 53.2736 21.8001 53.2392 22.3056C52.6596 28.3777 50.1592 43.1135 48.8861 49.9116C48.3489 52.7898 47.2908 53.7567 46.262 53.8512C44.0317 54.0563 42.3387 52.3763 40.1801 50.96C36.8005 48.7461 34.8894 47.3786 31.6108 45.2037C27.8178 42.7065 30.2759 41.3326 32.4378 39.0893C33.0043 38.5 42.8271 29.5628 43.0192 28.7521C43.0438 28.6331 43.0405 28.5099 43.0094 28.3924C42.9783 28.2749 42.9204 28.1662 42.8401 28.0749C42.7234 27.9996 42.5905 27.9532 42.4523 27.9396C42.3142 27.9261 42.1748 27.9456 42.0457 27.9967C41.7071 28.0749 36.3078 31.6433 25.848 38.7019C24.3134 39.7567 22.9254 40.2701 21.6838 40.2419C20.3098 40.2126 17.6727 39.467 15.7126 38.8288C13.3099 38.0474 11.3987 37.634 11.5647 36.3056C11.6494 35.611 12.6012 34.9045 14.4201 34.1861Z" fill="white"/>
</g>
<defs>
<linearGradient id="paint0_linear_154_151" x1="0" y1="35" x2="70" y2="35" gradientUnits="userSpaceOnUse">
<stop stop-color="#2AABEE"/>
<stop offset="1" stop-color="#229ED9"/>
</linearGradient>
<clipPath id="clip0_154_151">
<rect width="70" height="70" fill="white"/>
</clipPath>
</defs>
</svg>
