<svg width="70" height="70" viewBox="0 0 70 70" fill="none" xmlns="http://www.w3.org/2000/svg">
<g clip-path="url(#clip0_154_133)">
<path d="M0 33.6C0 17.7605 0 9.83256 4.91953 4.91953C9.83907 0.00651147 17.7605 0 33.6 0H36.4C52.2395 0 60.1674 0 65.0805 4.91953C69.9935 9.83907 70 17.7605 70 33.6V36.4C70 52.2395 70 60.1674 65.0805 65.0805C60.1609 69.9935 52.2395 70 36.4 70H33.6C17.7605 70 9.83256 70 4.91953 65.0805C0.00651147 60.1609 0 52.2395 0 36.4V33.6Z" fill="#0077FF"/>
<path d="M36.465 49.1628C21.5339 49.1628 13.0232 38.9265 12.665 21.8953H20.1534C20.3976 34.3977 25.9129 39.6916 30.279 40.7791V21.8953H37.3213V32.6786C41.632 32.213 46.1641 27.3 47.6911 21.8953H54.7334C53.5613 28.5567 48.6483 33.4698 45.1548 35.4884C48.6483 37.1163 54.2418 41.4107 56.3711 49.1628H48.606C46.9422 43.9535 42.7943 39.9488 37.3083 39.3953V49.1628H36.465Z" fill="white"/>
</g>
<defs>
<clipPath id="clip0_154_133">
<rect width="70" height="70" fill="white"/>
</clipPath>
</defs>
</svg>
