<svg width="70" height="70" viewBox="0 0 70 70" fill="none" xmlns="http://www.w3.org/2000/svg">
<g clip-path="url(#clip0_154_127)">
<path d="M0 33.6C0 17.7605 -4.65748e-06 9.83256 4.91953 4.91953C9.83906 0.00651147 17.7605 0 33.6 0H36.4C52.2395 0 60.1674 0 65.0805 4.91953C69.9935 9.83907 70 17.7605 70 33.6V36.4C70 52.2395 70 60.1674 65.0805 65.0805C60.1609 69.9935 52.2395 70 36.4 70H33.6C17.7605 70 9.83255 70 4.91953 65.0805C0.00650681 60.1609 0 52.2395 0 36.4V33.6Z" fill="#25D366"/>
<path d="M16.1387 54.167L18.841 44.2954C16.7478 40.6625 15.9117 36.4405 16.4621 32.2841C17.0126 28.1276 18.919 24.2689 21.8856 21.3061C24.8523 18.3433 28.7135 16.442 32.8707 15.897C37.0278 15.352 41.2487 16.1936 44.8788 18.2915C48.509 20.3894 51.3456 23.6263 52.9489 27.5004C54.5522 31.3745 54.8327 35.6693 53.7468 39.719C52.6609 43.7686 50.2693 47.3469 46.9428 49.8991C43.6163 52.4513 39.5407 53.8347 35.348 53.8349C32.1685 53.8354 29.0397 53.0384 26.248 51.5167L16.1387 54.167ZM26.6973 48.0688L27.2768 48.4107C29.716 49.8567 32.4994 50.6192 35.335 50.6181C38.8442 50.6175 42.2538 49.4508 45.0278 47.3014C47.8018 45.1519 49.7829 42.1416 50.6597 38.7437C51.5366 35.3457 51.2595 31.7527 49.8719 28.5294C48.4844 25.3061 46.0651 22.6352 42.9943 20.9366C39.9235 19.238 36.3753 18.6079 32.9074 19.1454C29.4396 19.6829 26.2486 21.3575 23.8361 23.9061C21.4237 26.4546 19.9264 29.7325 19.5798 33.2246C19.2331 36.7167 20.0567 40.2251 21.921 43.1981L22.2987 43.7972L20.7001 49.6414L26.6973 48.0688Z" fill="white"/>
<path fill-rule="evenodd" clip-rule="evenodd" d="M44.9299 39.3172C44.8127 39.1186 44.4936 38.9916 44.0182 38.7605C43.5429 38.5293 41.202 37.3702 40.7624 37.214C40.3229 37.0577 40.0103 36.973 39.6912 37.4516C39.3722 37.9302 38.4638 38.9981 38.1838 39.3172C37.9038 39.6363 37.6303 39.6753 37.155 39.4377C35.7521 38.8762 34.4567 38.0765 33.3261 37.074C32.2857 36.1114 31.3937 35 30.6792 33.7758C30.4024 33.3005 30.6499 33.0433 30.8875 32.7991C31.1252 32.5549 31.3629 32.2423 31.6006 31.9656C31.796 31.7248 31.9561 31.4573 32.0759 31.1712C32.1398 31.0401 32.1697 30.8951 32.1629 30.7494C32.1561 30.6038 32.1127 30.4622 32.0368 30.3377C31.9196 30.1 30.9657 27.7558 30.5717 26.8019C30.1778 25.8479 29.7903 26.0009 29.5006 25.9847C29.2108 25.9684 28.9047 25.9847 28.5857 25.9847C28.3507 25.9943 28.12 26.0511 27.9074 26.1518C27.6949 26.2525 27.5048 26.395 27.3485 26.5707C26.8101 27.0808 26.3839 27.6974 26.0969 28.3813C25.8099 29.0652 25.6684 29.8013 25.6815 30.5428C25.6815 32.8837 27.3875 35.1465 27.635 35.4656C27.8824 35.7847 30.9917 40.5902 35.7745 42.6512C36.6608 43.0344 37.5672 43.3692 38.4899 43.654C39.4597 43.951 40.4858 44.0156 41.4852 43.8428C42.4001 43.706 44.3015 42.6935 44.6987 41.5637C45.0959 40.434 45.0634 39.5158 44.9299 39.3172Z" fill="white"/>
</g>
<defs>
<clipPath id="clip0_154_127">
<rect width="70" height="70" fill="white"/>
</clipPath>
</defs>
</svg>
